<?xml version="1.0" encoding="utf-8"?>
<!-- Generator: Adobe Illustrator 26.0.2, SVG Export Plug-In . SVG Version: 6.00 Build 0)  -->
<svg version="1.1" id="Layer_1" xmlns="http://www.w3.org/2000/svg" xmlns:xlink="http://www.w3.org/1999/xlink" x="0px" y="0px"
	 viewBox="0 0 2000.5 1992" style="enable-background:new 0 0 2000.5 1992;" xml:space="preserve">
<style type="text/css">
	.st0{fill:#0F716E;}
	.st1{fill:#0E6564;}
	.st2{fill:#165454;}
	.st3{fill:#0A2E2E;}
	.st4{fill:#0F1413;}
	.st5{fill:#091F1F;}
	.st6{fill:#0F1213;}
</style>
<g>
	<path class="st0" d="M715.7,1410.3c-77.3-81.4-165.3-151.1-247.6-227.1c-52.9-48.9-105.8-98.1-161.5-143.7
		c-26.9-22-20.3-32.7,1.2-52.6C436.4,868.6,563.6,749,691.1,629.6c9-8.4,16.7-18.2,25-27.3c3.2-3.1,7.1-4.8,11.5-5.1
		c61.1,19.7,121.3,41.6,178.7,70.7c5.3,5.4,8.7,11.9,10.8,19.1c6.4,31.5,3.7,63.4,3.7,95.2c0.3,159,0.2,318,0,477
		c0,23.4,2,47.2-8.2,69.4c-7.6,14.2-20.6,22-35,27.3c-50.3,18.7-98.2,43.7-150,58.8C723.1,1415,719.1,1413.5,715.7,1410.3z"/>
	<path class="st0" d="M249.4,424.5c-15.2-8.2-2.2-17.1,0.8-23.7c51.5-112.1,104.1-223.7,155.2-336c9.3-20.5,20.4-28.3,43.6-28.3
		c280.4,0.9,560.7,0.5,841.1,0.7c9.2,0,19.6-3.4,27.2,5.7c-16,38.9-49.9,62.5-79.4,89C1142,218,1049,307.3,953.8,394.2
		c-26.4,24.1-52.8,36.3-88.8,36.1c-181.7-1.1-363.4-0.7-545.2-0.3C296.1,430,272.9,426.1,249.4,424.5z"/>
	<path class="st0" d="M1314.5,1961.4c-11.5,12-26.3,6-39.3,6c-273.3,0.4-546.7-0.1-820,0.9c-28.6,0.1-44.1-7.2-56.4-34.8
		c-46.7-105.1-96.8-208.8-144.4-313.5c-4-8.9-29-25.1,2.9-32.9c213.6-26.2,428-11.6,642-11.5c11.3,1.5,21.4,6.2,29.4,14.2
		c125.1,125.6,263,238,383.9,368C1316.2,1961.9,1311,1957.1,1314.5,1961.4z"/>
	<path class="st1" d="M249.4,424.5c13.7-10.4,29.5-5.8,44.4-5.8c190.3-0.3,380.7-0.9,571,0.5c33.1,0.2,56.2-9.7,80.4-32.5
		c122.9-115.8,247.8-229.4,372.1-343.8c41.9,63.6,71.6,133.6,106,201.1c123.8,243.2,246.2,487,369,730.6c3,5.9,4.2,12.8,6.2,19.2
		c-8.2,3.7-15.8,0.8-23.5-1.9c-124.7-73-244.1-154.5-365.4-232.8c-152.9-98.6-306.9-195.7-458.4-296.5
		C932.7,450.3,914,437.9,890,439c-4.8-0.1-9.4-0.1-14.2,0.1c-200.8-1.1-401.6,8.1-602.1-5.4C265.6,430.6,257.5,427.6,249.4,424.5z"
		/>
	<path class="st2" d="M1782.5,986.1c5.4,2.5,10.7,5.1,16.1,7.6c0,5.8,0,11.5,0.1,17.3c-5.3,16.3-23.8,7.4-32.5,17.3
		c-153.8,59.7-309.5,114.5-464.1,172.1c-119.5,44.5-238.9,89.5-359.2,131.7c-10.4,3.7-20.5,8.6-31.9,8.9c-4.5-0.3-8.4-2.1-11.6-5.3
		c10.9-16.1,8.5-34.4,8.5-52.3c0-202,0-404,0-606.1c16.7-12.1,32.1-1.9,47.2,3.6c247.6,91.3,496.4,179.2,743.7,271.1
		C1727,962.6,1751.6,982.1,1782.5,986.1z"/>
	<path class="st1" d="M1775.8,1017c7.6-2,15.2-4,22.8-5.9c-42.6,103.8-98.9,200.8-149.2,300.7c-105.9,210.3-214.1,419.6-321.4,629.2
		c-3.7,7.2-9,13.6-13.5,20.4c-12.3-0.4-19.5-9.1-27.5-16.8c-75.5-72.8-149.9-146.8-227-217.8c-49.7-45.7-101.9-88.6-144.2-141.7
		c-2.1-3.8-2.3-7.6-0.7-11.6c45.8-42.8,101.2-72.1,153.3-105.7c200.2-129.2,400.5-258.2,600.4-387.7
		C1703.7,1057.4,1740.7,1038.9,1775.8,1017z"/>
	<path class="st3" d="M915.9,1577.7c-0.1,2.5-0.1,4.9-0.1,7.4c-156.6,0.6-313.2,0.9-469.8,2c-40,0.3-79.9-1.9-120.1,5.2
		c-21.9,3.9-46.8,8.2-68.7-5.1c143.8-55.6,287.6-111.2,431.4-166.8c9-3.5,18.1-6.8,27.1-10.1c2.9,0.3,5.7,0.5,8.6,0.8
		c38.7,14.6,63.1,47,91.9,73.9c29,27.1,53.7,58.7,86.5,81.7C908,1569.4,912.7,1572.6,915.9,1577.7z"/>
	<path class="st3" d="M273.7,433.7c10.2-10.2,23.3-7.2,35.4-7.2c194,0,388,0.1,582,0.2c7.1,17.7-3.6,30.8-14.9,39.7
		c-47.9,38.1-88.2,84.1-133,125.4c-5.2,4.8-11.9,7-18.4,9.3c-2.9,0.4-5.8,0.8-8.7,1.2C568.6,546.1,421.2,489.9,273.7,433.7z"/>
	<path class="st4" d="M1782.5,986.1c-3.4,5.8-8.4,6.2-14.1,4.1c-238.7-87.4-477.4-174.9-716.1-262.1
		c-47.9-17.5-96.3-33.9-144.5-50.8c-2.8-2.8-5.6-5.6-8.4-8.4c-7.2-80.6-6.7-161.3,0.1-241.9c23.5,1.5,40.4,16.8,58.8,28.6
		C1233.1,632.4,1507.8,809.3,1782.5,986.1z"/>
	<path class="st5" d="M899.5,427c13.5,80.6,13.7,161.3-0.1,241.9c-60.2-17.4-118.2-40.5-174.5-67.9c41.3-45.8,82.3-91.8,132.3-128.8
		c15.9-11.7,26.8-27.4,34-45.7C893.9,426.8,896.7,426.9,899.5,427z"/>
	<path class="st5" d="M899.9,1577.4c-58.5-55.4-117.1-110.9-175.6-166.3c55.5-31.7,117.2-49,175-75.4c2.9,0.2,5.7,0.4,8.6,0.5
		c9.2,7.8,11.5,18.8,11.9,29.8c2,57.7,1.9,115.4,0.1,173.1C919.4,1554.8,915.1,1569.1,899.9,1577.4z"/>
	<path class="st6" d="M899.9,1577.4c16.1-42.6,5.4-86.8,7.5-130.2c1.8-36.9,0.4-74,0.4-111c119-44.8,237.9-90,357.2-134.2
		c162.1-60.1,324.4-119.4,486.8-178.9c7.7-2.8,16-4.1,24.1-6.2c-46,42.3-101.1,71.7-152.9,105.5
		c-215.1,140.2-431.3,278.5-647.2,417.5c-19.8,12.8-39.9,25.1-59.9,37.7C910.6,1577.6,905.2,1577.5,899.9,1577.4z"/>
</g>
</svg>
