<svg width="89" height="89" viewBox="0 0 89 89" fill="none" xmlns="http://www.w3.org/2000/svg">
<path fill-rule="evenodd" clip-rule="evenodd" d="M32.1463 55.4311H45.8962L48.9271 63.7834C49.0011 64.029 49.2598 64.2045 49.5185 64.1694H57.2436C57.6133 64.1694 57.7242 63.9939 57.6133 63.6079L44.1221 27.4618C44.0851 27.2863 43.9372 27.181 43.6415 27.181H34.1792H34.0683C33.8835 27.2161 33.7357 27.3916 33.7726 27.5671C33.7726 28.3391 33.6987 29.1112 33.5508 29.8481C33.4461 30.1465 33.3599 30.4272 33.2791 30.6904C33.2459 30.7986 33.2136 30.9039 33.1812 31.0062L21.2794 63.5377C21.1685 63.9588 21.2794 64.1694 21.686 64.1694H28.6349C28.9675 64.2045 29.2632 63.9939 29.3372 63.6781L32.1463 55.4311ZM43.6785 48.3072H34.2901C34.8445 46.8333 35.399 45.1839 35.9164 43.3941C36.2826 42.3078 36.6345 41.2215 36.9811 40.1518C37.1943 39.4937 37.4055 38.8419 37.6167 38.2003C38.1342 36.6913 38.5408 35.1823 38.8734 33.6733H38.9473C39.0916 34.1428 39.2358 34.6341 39.3864 35.1472C39.506 35.5546 39.6296 35.9757 39.7605 36.4106C40.0562 37.4283 40.3889 38.446 40.7585 39.5339C40.9433 40.0778 41.1189 40.6129 41.2944 41.1481C41.47 41.6833 41.6456 42.2185 41.8304 42.7625C42.1631 43.8153 42.4957 44.833 42.8284 45.7805C43.161 46.6929 43.4567 47.5702 43.6785 48.3072Z" fill="#CFA40A"/>
<path fill-rule="evenodd" clip-rule="evenodd" d="M62.3814 31.9537C63.2685 32.7608 64.4513 33.2171 65.671 33.182C66.9278 33.2521 68.1845 32.7959 69.0346 31.9537C69.9217 31.0764 70.3652 29.9183 70.3283 28.7251C70.3652 27.567 69.9217 26.444 69.1085 25.6018C68.2954 24.7947 67.1865 24.3735 65.745 24.3735C64.5252 24.3735 63.3424 24.7947 62.4553 25.6018C61.5682 26.4089 61.0877 27.5319 61.1247 28.7251C61.0877 29.9183 61.5313 31.0764 62.3814 31.9537ZM61.5313 36.6211V63.6429C61.5313 63.9939 61.7161 64.2044 62.0857 64.2044H69.3303C69.663 64.2044 69.8108 64.029 69.8108 63.6429V36.6211C69.8108 36.3053 69.663 36.1298 69.3303 36.1298H62.0118C61.6791 36.1298 61.5313 36.2702 61.5313 36.6211Z" fill="#CFA40A"/>
</svg>
