<svg id="Layer_1" data-name="Layer 1" xmlns="http://www.w3.org/2000/svg" width="235" height="235.9" viewBox="0 0 235 235.9">
  <defs>
    <style>
      .cls-1 {
        fill: #41322a;
      }

      .cls-2 {
        fill: #ff7e1b;
      }

      .cls-3 {
        fill: none;
        stroke: #ff7e1b;
        stroke-miterlimit: 10;
        stroke-width: 10px;
      }
    </style>
  </defs>
  <g>
    <path class="cls-1" d="M216,80.4a105.38,105.38,0,0,1-23,115.1,103.54,103.54,0,0,1-34.3,23,105.38,105.38,0,0,1-115.1-23,103.54,103.54,0,0,1-23-34.3A106,106,0,0,1,77.9,23.1a104.73,104.73,0,0,1,40.4-8,102.92,102.92,0,0,1,40.4,8A106.72,106.72,0,0,1,216,80.4Zm-48.3,85.9V98.9c0-.6-.3-1-.8-1H153.2c-.7,0-1.1.3-1.1.9l.1,67.5a1,1,0,0,0,1.1,1.1h13.4A1,1,0,0,0,167.7,166.3Zm.8-86.7c0-5.2-2.8-8.1-8.5-8.8a9.29,9.29,0,0,0-6.4,2.3c-1.7,1.5-2.5,3.7-2.5,6.5,0,5.6,2.9,8.5,8.7,8.8a8.12,8.12,0,0,0,8.7-8.8Zm-29.7,87.8c.4,0,.6-.2.6-.5q0-.15-13.6-46.7T111.9,73.5c-.1-.1-6.4-.2-18.8-.2-.3,0-.5.3-.5.9a35.23,35.23,0,0,1-.4,4.5c-.2,1-4.4,16-12.7,45.1-8.1,28.4-12.2,42.7-12.2,42.9a.85.85,0,0,0,.2.6,55,55,0,0,0,7,.2,62.73,62.73,0,0,0,7.3-.2c.1-.1,2.5-8.9,7.2-26.3h27.2l7.2,25.9c.1.4.5.5,1.2.5Z"/>
    <path class="cls-2" d="M167.7,98.9v67.4c0,.7-.3,1.1-1,1.1H153.3a1,1,0,0,1-1.1-1.1l-.1-67.5c0-.6.4-.9,1.1-.9h13.7A.91.91,0,0,1,167.7,98.9Z"/>
    <path class="cls-2" d="M160,70.8c5.7.6,8.5,3.6,8.5,8.8a8.37,8.37,0,0,1-2.5,6.5,8.87,8.87,0,0,1-6.3,2.3c-5.8-.3-8.7-3.2-8.7-8.8a8.37,8.37,0,0,1,2.5-6.5A9.74,9.74,0,0,1,160,70.8Z"/>
    <path class="cls-2" d="M139.4,166.8c0,.4-.2.5-.6.5H124.5a1.36,1.36,0,0,1-1.2-.5l-7.2-25.9H88.9c-4.6,17.4-7,26.1-7.2,26.3a61.22,61.22,0,0,1-7.3.2,55,55,0,0,1-7-.2.85.85,0,0,1-.2-.6c0-.2,4.1-14.5,12.2-42.9,8.3-29.1,12.5-44.1,12.7-45.1a35.23,35.23,0,0,0,.4-4.5c0-.6.2-.9.5-.9,12.4,0,18.7,0,18.8.2s4.8,15.7,13.9,46.7S139.4,166.7,139.4,166.8Zm-26.8-39.7-2.8-11.3c-3.6-13.8-6.1-23.5-7.3-29h-.2c-1.6,8.2-4.8,21.6-9.8,40.3Z"/>
    <path class="cls-1" d="M109.8,115.8l2.8,11.3H92.5c5-18.7,8.3-32.1,9.8-40.3h.2C103.7,92.3,106.2,102,109.8,115.8Z"/>
    <path class="cls-3" d="M77.8,218.6a105.08,105.08,0,0,1-34.3-23,103.54,103.54,0,0,1-23-34.3A106,106,0,0,1,77.8,23.2a104.73,104.73,0,0,1,40.4-8,102.92,102.92,0,0,1,40.4,8,105.55,105.55,0,0,1,34.3,172.4,103.54,103.54,0,0,1-34.3,23,106,106,0,0,1-80.8,0Z"/>
  </g>
</svg>
