<?xml version="1.0" encoding="utf-8"?>
<!-- Generator: Adobe Illustrator 26.0.2, SVG Export Plug-In . SVG Version: 6.00 Build 0)  -->
<svg version="1.1" id="Layer_1" xmlns="http://www.w3.org/2000/svg" xmlns:xlink="http://www.w3.org/1999/xlink" x="0px" y="0px"
	 viewBox="0 0 197 206" style="enable-background:new 0 0 197 206;" xml:space="preserve">
<style type="text/css">
	.st0{fill:#DD0031;}
	.st1{fill:#C3002F;}
	.st2{fill:#FFFFFF;}
</style>
<g>
	<polygon class="st0" points="99,4 99,4 99,4 5.9,37.2 20.1,160.3 99,204 99,204 99,204 177.9,160.3 192.1,37.2 	"/>
	<polygon class="st1" points="99,4 99,26.2 99,26.1 99,127.4 99,127.4 99,204 99,204 177.9,160.3 192.1,37.2 	"/>
	<path class="st2" d="M99,26.1L40.8,156.6l0,0h21.7l0,0l11.7-29.2h49.4l11.7,29.2l0,0H157l0,0L99,26.1L99,26.1L99,26.1L99,26.1
		L99,26.1z M116,109.4H82l17-40.9L116,109.4z"/>
</g>
</svg>
