<svg width="41" height="41" viewBox="0 0 41 41" fill="none" xmlns="http://www.w3.org/2000/svg">
<path d="M21.3747 23.0537C21.4514 21.3702 22.121 19.8871 23.1313 18.8357C24.122 17.803 25.4555 17.1719 26.9105 17.1719C28.3641 17.1719 29.6976 17.803 30.689 18.8357C31.6986 19.8871 32.3682 21.3702 32.4456 23.0519C32.5223 24.7816 31.9575 26.3885 30.9667 27.5796C29.9565 28.7912 28.5196 29.5515 26.9105 29.5515C25.3015 29.5515 23.8617 28.7912 22.8521 27.5796C21.8607 26.3885 21.2974 24.7816 21.3747 23.0537Z" fill="#265787"/>
<path d="M12.558 26.4544C12.5674 27.1132 12.738 28.3934 12.994 29.3931C13.5321 31.5092 14.4447 33.4668 15.7146 35.1921C17.0177 36.9654 18.6224 38.3898 20.4759 39.4011C22.4241 40.4631 24.535 41.0044 26.7276 41C28.9166 40.9964 31.0275 40.4445 32.9757 39.3744C34.8292 38.3533 36.4324 36.9227 37.7334 35.1485C39.0025 33.4161 39.9137 31.4549 40.4532 29.3388C40.7244 28.2696 40.8958 27.1844 40.9645 26.0957C41.0317 25.0229 41.0035 23.9484 40.8798 22.8748C40.6383 20.7827 40.0504 18.8198 39.145 17.0304C38.317 15.3861 37.2496 13.9466 35.9804 12.735L35.9833 12.7323L23.1754 0.626041C23.1638 0.615358 23.1545 0.603802 23.1422 0.59401C22.3018 -0.200079 20.8888 -0.197404 19.9646 0.598465C19.0303 1.40324 18.9232 2.73412 19.7549 3.57361L19.7512 3.57807L25.0932 8.92569L8.81128 8.94708H8.78958C7.44378 8.94886 6.15005 10.0358 5.89405 11.4095C5.63082 12.8089 6.54489 13.9698 7.9442 13.976L7.94204 13.9822L16.1947 13.9627L1.4683 27.8779C1.44949 27.8948 1.42924 27.9126 1.41189 27.9295C0.0226956 29.2391 -0.426377 31.4166 0.448648 32.7947C1.33669 34.1959 3.22486 34.1986 4.62852 32.8027L12.6657 24.7051C12.6657 24.7051 12.5486 25.7983 12.558 26.4544ZM33.2107 30.1151C31.5547 32.192 29.2362 33.3698 26.7276 33.376C24.2153 33.3814 21.8969 32.2143 20.2408 30.1409C19.4316 29.1305 18.8372 27.9678 18.4705 26.7295C18.1111 25.5126 17.9716 24.2208 18.0641 22.9175C18.1516 21.6436 18.4597 20.4284 18.9514 19.329C19.4345 18.2482 20.0998 17.2717 20.9213 16.4455C22.5311 14.8306 24.5805 13.9564 26.724 13.9529C28.8696 13.9493 30.9176 14.8155 32.5288 16.425C33.3489 17.2476 34.0134 18.2206 34.4965 19.2996C34.9904 20.3982 35.2963 21.6089 35.3874 22.8864C35.4786 24.1879 35.339 25.4778 34.9796 26.6957C34.6122 27.9376 34.0199 29.1002 33.2107 30.1151Z" fill="#EA7600"/>
</svg>
