<?xml version="1.0" encoding="utf-8"?>
<!-- Generator: Adobe Illustrator 26.0.2, SVG Export Plug-In . SVG Version: 6.00 Build 0)  -->
<svg version="1.1" xmlns="http://www.w3.org/2000/svg" xmlns:xlink="http://www.w3.org/1999/xlink" x="0px" y="0px"
	 viewBox="0 0 2500 1992" style="enable-background:new 0 0 2500 1992;" xml:space="preserve">
<style type="text/css">
	.st0{fill:#FFFFFF;}
	.st1{fill-rule:evenodd;clip-rule:evenodd;fill:#7952B3;}
</style>
<g id="Layer_2">
	<rect x="546" y="352.4" class="st0" width="1300.6" height="1300.6"/>
</g>
<g id="Layer_1">
	<path class="st1" d="M519.3,0.2c-142.6,0-248.2,124.9-243.5,260.3c4.5,130.1-1.4,298.6-43.8,436C189.5,834.2,117.5,921.5,0,932.7
		v126.5c117.5,11.2,189.5,98.5,232,236.3c42.4,137.4,48.3,305.9,43.8,436c-4.7,135.4,100.8,260.3,243.5,260.3h1461.7
		c142.6,0,248.2-124.9,243.5-260.3c-4.5-130.1,1.4-298.6,43.8-436c42.6-137.8,114.3-225.1,231.8-236.3V932.7
		c-117.5-11.2-189.3-98.5-231.8-236.3c-42.4-137.4-48.3-305.9-43.8-436c4.7-135.4-100.8-260.3-243.5-260.3L519.3,0.2L519.3,0.2z
		 M1694.9,1226.2c0,186.4-139.1,299.5-369.9,299.5H932.2c-23.4,0-42.4-19-42.4-42.4l0,0V508.7c0-23.4,19-42.4,42.4-42.4h390.6
		c192.4,0,318.7,104.2,318.7,264.3c0,112.3-85,212.9-193.2,230.5v5.9C1595.7,983.1,1694.9,1085.2,1694.9,1226.2L1694.9,1226.2z
		 M1282.2,600.7h-224v316.4h188.7c145.8,0,226.3-58.7,226.3-163.7C1473.1,655,1404,600.7,1282.2,600.7L1282.2,600.7z M1058.2,1042.6
		v348.7h232.2c151.9,0,232.3-60.9,232.3-175.4s-82.7-173.3-242.1-173.3L1058.2,1042.6L1058.2,1042.6z"/>
</g>
</svg>
