<svg id="Layer_1" data-name="Layer 1" xmlns="http://www.w3.org/2000/svg" width="324.1" height="367.4" viewBox="0 0 324.1 367.4">
  <defs>
    <style>
      .cls-1 {
        fill: #2d80ba;
      }

      .cls-2 {
        fill: #75b0c9;
      }

      .cls-3 {
        fill: #cfcfcf;
      }

      .cls-4 {
        fill: #fff;
      }
    </style>
  </defs>
  <g id="_0170baff" data-name="#0170baff">
    <path class="cls-1" d="M8.9,7.1h324q-8.85,100.8-18,201.5Q309.35,273,303.4,337.3c-23,6.1-45.9,13.1-68.9,19.2-21.2,6.2-42.5,11.8-63.7,18h-.6c-20.1-6-40.5-11.3-60.6-17.3-23.8-6.4-47.3-13.6-71.1-19.9-3.1-32.1-5.9-64.3-8.7-96.5C24.6,181.4,18.9,122,13.9,62.5c-1.7-17.9-3-35.8-5.1-53.7V7.1M171.4,33.6c-.2,12.9.2,25.8-.2,38.7-37.1-.1-74.1,0-111.2,0,.6,12.5,2.3,25,4,37.4,34.5,1.3,69,0,103.5,1-30.2,13.5-60.7,26.3-91,39.5-2.6,1.2-5.4,2-7.7,3.7.3,13.8,2.5,27.4,3.5,41.2,18.4-.1,36.7-.4,55.1-.4,14.7-.1,29.5.2,44.2-.1-.7,22.6.2,45.3-.5,67.9-9.9-1.5-19.7-3.7-29.6-5.4-7.8-1.7-15.8-2.6-23.4-4.8-1.1-10.9-1.8-21.7-2.8-32.6-2.2-.7-4.6-.6-6.9-.7-11.1.1-22.3,0-33.4.1a621.75,621.75,0,0,0,6.2,62.4c11,2.9,22,5.7,32.9,8.7,16.8,4.6,33.8,8.4,50.6,12.9,2,.4,4,1.2,6.1,1,1.1,13.7.3,27.6.5,41.3a86,86,0,0,0,11.4-2.7c31.8-8.6,63.6-17.5,95.5-26.2,1.6-12.5,2.3-25.1,3.6-37.7q4.95-57.15,10.1-114.4c4.1-43.6,7.6-87.3,11.7-130.9C259.5,33.6,215.4,33.5,171.4,33.6Z" transform="translate(-8.8 -7.1)"/>
  </g>
  <g id="_29a9dfff" data-name="#29a9dfff">
    <path class="cls-2" d="M171.4,33.6c44-.1,88.1,0,132.2-.1-4.1,43.6-7.6,87.3-11.7,130.9q-5.25,57.15-10.1,114.4c-1.3,12.5-2,25.1-3.6,37.7q-47.7,13-95.5,26.2a75.5,75.5,0,0,1-11.4,2.7c-.2-13.8.7-27.6-.5-41.3a5.16,5.16,0,0,1,1.1-.2c29.6-7.4,59-15.6,88.6-23.3,3.7-41.9,7.9-83.8,10.5-125.8-25.1.1-50.3.1-75.4.2-3.7,0-7.3,0-11-.3,13.5-7,27.7-12.5,41.6-18.7,13.3-6,26.8-11.7,40.2-17.6a41.91,41.91,0,0,0,7.6-3.9c.9-3.3.8-6.7,1.2-10,.8-10.6,2.1-21.2,2.6-31.8-35.6-.3-71.2,0-106.8-.2C171.6,59.5,171.2,46.5,171.4,33.6Z" transform="translate(-8.8 -7.1)"/>
    <path class="cls-2" d="M171.6,194.6c17.2-.3,34.4.2,51.6.1-1,17.6-2.4,35.1-3.3,52.7-10.5,3.4-21.2,6.4-31.8,9.5-5.7,1.7-11.5,3.1-16.9,5.6C171.8,239.9,170.9,217.3,171.6,194.6Z" transform="translate(-8.8 -7.1)"/>
  </g>
  <g id="_cfcfcfff" data-name="#cfcfcfff">
    <path class="cls-3" d="M60,72.4c37.1,0,74.1-.1,111.2,0,.5,40.8-.1,81.5.4,122.3-14.7.3-29.5,0-44.2.1-18.4,0-36.7.3-55.1.4-1-13.7-3.2-27.4-3.5-41.2,2.3-1.7,5.1-2.6,7.7-3.7,30.3-13.2,60.8-26,91-39.5-34.5-1-69,.3-103.5-1C62.3,97.3,60.6,84.9,60,72.4Z" transform="translate(-8.8 -7.1)"/>
    <path class="cls-3" d="M75,219.1c11.1-.2,22.3-.1,33.4-.1a23.15,23.15,0,0,1,6.9.7c1,10.9,1.7,21.8,2.8,32.6,7.7,2.2,15.6,3.1,23.4,4.8,9.9,1.8,19.7,4,29.6,5.4.9,13.8-.7,27.6.9,41.3a5.16,5.16,0,0,1-1.1.2c-2.1.2-4.1-.6-6.1-1-16.8-4.5-33.8-8.3-50.6-12.9-11-3-22-5.8-32.9-8.7A586.75,586.75,0,0,1,75,219.1Z" transform="translate(-8.8 -7.1)"/>
  </g>
  <g id="_ffffffff" data-name="#ffffffff">
    <path class="cls-4" d="M171.2,72.4c35.6.2,71.2-.1,106.8.2-.5,10.6-1.9,21.2-2.6,31.8-.4,3.3-.3,6.8-1.2,10-2.3,1.8-5,2.7-7.6,3.9-13.4,5.9-26.8,11.6-40.2,17.6-13.9,6.2-28.1,11.7-41.6,18.7,3.6.3,7.3.3,11,.3,25.1-.1,50.3,0,75.4-.2-2.6,42-6.8,83.9-10.5,125.8-29.5,7.7-59,15.9-88.6,23.3-1.6-13.7.1-27.6-.9-41.3,5.4-2.5,11.2-3.9,16.9-5.6,10.6-3.2,21.3-6.1,31.8-9.5.9-17.6,2.4-35.1,3.3-52.7-17.2.1-34.4-.4-51.6-.1C171,153.9,171.6,113.1,171.2,72.4Z" transform="translate(-8.8 -7.1)"/>
  </g>
</svg>
