<svg width="103" height="102" viewBox="0 0 103 102" fill="none" xmlns="http://www.w3.org/2000/svg">
<path d="M41.4737 81.6393C47.0707 81.6393 51.608 77.102 51.608 71.505V61.3707H41.4737C35.8766 61.3707 31.3394 65.908 31.3394 71.505C31.3394 77.102 35.8766 81.6393 41.4737 81.6393Z" fill="#0ACF83"/>
<path d="M31.3394 51.2363C31.3394 45.6393 35.8766 41.102 41.4737 41.102H51.608V61.3706H41.4737C35.8766 61.3706 31.3394 56.8333 31.3394 51.2363Z" fill="#A259FF"/>
<path d="M31.3394 30.9677C31.3394 25.3707 35.8766 20.8334 41.4737 20.8334H51.608V41.102H41.4737C35.8766 41.102 31.3394 36.5647 31.3394 30.9677Z" fill="#F24E1E"/>
<path d="M51.608 20.8334H61.7423C67.3393 20.8334 71.8766 25.3707 71.8766 30.9677C71.8766 36.5647 67.3393 41.102 61.7423 41.102H51.608V20.8334Z" fill="#FF7262"/>
<path d="M71.8766 51.2363C71.8766 56.8333 67.3393 61.3706 61.7423 61.3706C56.1453 61.3706 51.608 56.8333 51.608 51.2363C51.608 45.6393 56.1453 41.102 61.7423 41.102C67.3393 41.102 71.8766 45.6393 71.8766 51.2363Z" fill="#1ABCFE"/>
</svg>
