<?xml version="1.0" encoding="utf-8"?>
<!-- Generator: Adobe Illustrator 26.0.2, SVG Export Plug-In . SVG Version: 6.00 Build 0)  -->
<svg version="1.1" id="Layer_1" xmlns="http://www.w3.org/2000/svg" xmlns:xlink="http://www.w3.org/1999/xlink" x="0px" y="0px"
	 viewBox="0 0 103 102" style="enable-background:new 0 0 103 102;" xml:space="preserve">
<style type="text/css">
	.st0{fill:#292929;stroke:#4A4A4A;stroke-width:6;stroke-miterlimit:10;}
	.st1{fill:#0ACF83;}
	.st2{fill:#A259FF;}
	.st3{fill:#F24E1E;}
	.st4{fill:#FF7262;}
	.st5{fill:#1ABCFE;}
</style>
<circle class="st0" cx="51.5" cy="51" r="46.9"/>
<path class="st1" d="M42.6,78.1c5,0,9-4,9-9v-9h-9c-5,0-9,4-9,9S37.7,78.1,42.6,78.1z"/>
<path class="st2" d="M33.7,51.2c0-5,4-9,9-9h9v17.9h-9C37.7,60.2,33.7,56.2,33.7,51.2z"/>
<path class="st3" d="M33.7,33.3c0-5,4-9,9-9h9v17.9h-9C37.7,42.3,33.7,38.2,33.7,33.3z"/>
<path class="st4" d="M51.6,24.3h9c5,0,9,4,9,9s-4,9-9,9h-9V24.3z"/>
<path class="st5" d="M69.5,51.2c0,5-4,9-9,9c-5,0-9-4-9-9s4-9,9-9C65.5,42.3,69.5,46.3,69.5,51.2z"/>
</svg>
