<?xml version="1.0" encoding="utf-8"?>
<!-- Generator: Adobe Illustrator 26.0.2, SVG Export Plug-In . SVG Version: 6.00 Build 0)  -->
<svg version="1.1" xmlns="http://www.w3.org/2000/svg" xmlns:xlink="http://www.w3.org/1999/xlink" x="0px" y="0px"
	 viewBox="0 0 2500 2500" style="enable-background:new 0 0 2500 2500;" xml:space="preserve">
<style type="text/css">
	.st0{fill:#FFFFFF;}
	.st1{fill:#DE4C36;}
</style>
<g id="Layer_2">
	
		<rect x="367.2" y="373" transform="matrix(0.7071 0.7071 -0.7071 0.7071 1133.0735 -465.9331)" class="st0" width="1523.6" height="1523.6"/>
</g>
<g id="Layer_1">
	<path class="st1" d="M2452.9,1138.6L1361.3,47.1c-62.8-62.9-164.8-62.9-227.7,0L907,273.8l287.5,287.5
		c66.8-22.6,143.4-7.4,196.7,45.8c53.5,53.6,68.6,130.9,45.4,197.9l277.1,277.1c67-23.1,144.4-8.2,197.9,45.5
		c74.8,74.8,74.8,196,0,270.9c-74.9,74.9-196.1,74.9-271,0c-56.3-56.3-70.2-139-41.7-208.4l-258.4-258.4l0,680
		c18.7,9.3,35.8,21.5,50.7,36.2c74.8,74.8,74.8,196.1,0,271c-74.9,74.8-196.2,74.8-270.9,0c-74.8-74.9-74.8-196.2,0-271
		c17.9-17.9,39.2-32.2,62.7-41.8V919.9c-23.5-9.6-44.8-23.8-62.7-41.8c-56.7-56.6-70.3-139.8-41.3-209.4L795.6,385.2L47.2,1133.6
		c-62.9,62.9-62.9,164.9,0,227.8l1091.5,1091.5c62.8,62.9,164.8,62.9,227.7,0l1086.4-1086.4
		C2515.7,1303.5,2515.7,1201.5,2452.9,1138.6"/>
</g>
</svg>
