<svg width="44" height="48" viewBox="0 0 44 48" fill="none" xmlns="http://www.w3.org/2000/svg">
<path d="M11.5459 31.7075L9.56667 9.56665H31.3145L29.3332 31.7041L20.4273 34.1666L11.5459 31.7075Z" fill="#E44D26"/>
<path d="M20.4406 32.2058L27.656 30.2207L29.3536 11.3492H20.4406V32.2058Z" fill="#F16529"/>
<path d="M20.4406 19.5116H16.8659L16.619 16.7349H20.4406V14.0232H20.4312H13.6667L13.7313 14.7507L14.3953 22.2232H20.4406V19.5116Z" fill="#EBEBEB"/>
<path d="M20.4406 26.6668L20.4288 26.67L17.4415 25.8429L17.2506 23.6493H15.799H14.558L14.9338 27.9678L20.4282 29.5319L20.4406 29.5284V26.6668Z" fill="#EBEBEB"/>
<path d="M20.4406 19.5493V22.293H23.7457L23.4342 25.8514L20.4406 26.6773V29.5319L25.9431 27.9729L25.9835 27.5094L26.6142 20.286L26.6797 19.5493H25.9564H20.4406Z" fill="white"/>
<path d="M20.4406 14.0232V15.6839V16.6906V16.6971H26.9637H26.9724L27.0266 16.0961L27.1498 14.7406L27.2145 14.0232H20.4406Z" fill="white"/>
<g clip-path="url(#clip0_5_154)">
<path d="M25.6747 45.5906L24 25.0386L44 25.0799L42.2292 45.5906L34.0755 47.9614L25.6747 45.5906Z" fill="#1B73BA"/>
<path d="M34.0755 45.9765V26.9959L42.3116 27.0234L40.8429 44.0054L34.0755 45.9765Z" fill="#1C88C7"/>
<path d="M40.2663 29.422H27.5965L27.9397 31.903H33.9519L28.0358 34.4531L28.3789 36.8515H37.0955L36.7797 40.2009L33.8284 40.7799L31.1518 40.0908L30.9458 38.1885H28.4887L28.8181 42.1446L34.0892 43.6195L39.1408 42.0068L39.786 34.2738H34.446L40.2661 31.8479L40.2663 29.422Z" fill="white"/>
</g>
<defs>
<clipPath id="clip0_5_154">
<rect width="20" height="23" fill="white" transform="translate(24 25)"/>
</clipPath>
</defs>
</svg>
