<?xml version="1.0" encoding="utf-8"?>
<!-- Generator: Adobe Illustrator 26.0.2, SVG Export Plug-In . SVG Version: 6.00 Build 0)  -->
<svg version="1.1" id="Layer_1" xmlns="http://www.w3.org/2000/svg" xmlns:xlink="http://www.w3.org/1999/xlink" x="0px" y="0px"
	 viewBox="0 0 1975.7 1992" style="enable-background:new 0 0 1975.7 1992;" xml:space="preserve">
<style type="text/css">
	.st0{fill:#429835;}
	.st1{fill:#4DA93F;}
	.st2{fill:#42A335;}
	.st3{fill:#59AE48;}
	.st4{fill:#64B453;}
	.st5{fill:#ADAC8C;}
	.st6{fill:#BCBBA0;}
	.st7{fill:#CBC9B2;}
	.st8{fill:#DEDCCB;}
</style>
<g>
	<path class="st0" d="M1001.8,42.4c10.4,20.4,20.7,40.8,31.1,61.2c19.5,38.5,48.7,69.4,78.7,99.6
		c164.3,165.7,269.6,365.2,310.2,592.6c62.3,348.9-35.8,649.3-302.5,889.3c-13.6,12.2-28.6,22.8-43,34.1c-8.2,6.4-12.3-1.5-17.8-4.9
		c-11.7-11.2-21.7-23.6-27.7-38.9c-18-43.4-26.1-88.8-26.4-135.7c-9.9-109.2,9.2-217.6,8.5-326.6c-0.3-50.1,2.4-100.5,3.3-150.8
		c0.2-9.2-0.1-18.3-3.1-27.1c-2.1-11-1.7-22.1-1.7-33.3c0-92.2,1-184.4-0.4-276.6c-0.9-54.2-4.9-108.3-3.4-162.6
		c2-38.8-4.9-77.6,0.4-116.4c-0.8-40.5,3.5-81.1-2.5-121.5c-2-10.3-1.9-20.8-1.7-31.2c1.6-76.9-4.3-153.5-8.8-230.2
		C994.6,56,989.6,46.2,1001.8,42.4z"/>
	<path class="st1" d="M1017.8,1036.2c0.9,1,2.4,1.9,2.5,2.9c2,52.7,3,105.4-0.5,158.1c-0.4,5.8-2,11.6-1.8,17.4
		c2.9,78.1-4.9,156-9.4,233.8c-1.9,32.1,3.3,63.3,1.1,95c-11.7-2.8-1.7-12.3-5.7-16c3.9,53.5-8.2,106.9-17,160.5
		c-1.2,7.6-2.3,15.6-9.2,20.8c-14.2-0.6-17.4-11.8-21-22.3c-37.7-109.4-74.3-219.2-110.4-329.1c-26.3-80.1-53.8-159.8-80.2-239.9
		c-45.5-137.8-92.5-275-137.7-412.9c-2.2-6.6-3.5-13.8-9-20c-9.5,8.6-6.7,28.4-25.6,25.6c21.3-105.6,59.8-204.9,111.2-299.4
		c7.1-13,12-27.5,22.7-38.4c17.9-6.8,23.9-4.8,30.9,11c2.9,6.6,4.9,13.5,7.2,20.4c41,122.8,81.6,245.8,123.1,368.5
		c36.5,107.7,72.1,215.8,107.8,323.7c2,6.1,3.9,12.4,8.6,20.7c7.2-12.9,6.3-24.8,7.2-36.6
		C1013.8,1065.3,1008.3,1049.8,1017.8,1036.2z"/>
	<path class="st2" d="M594,710.1c11.4-4.2,14.6-13.6,16.3-24.5c0.8-4.7,2.6-11.7,8.5-12c6.1-0.2,7.3,6.9,8.9,11.5
		c17.1,50.6,33.8,101.2,50.7,151.9c16.2,48.7,32.3,97.5,48.7,146.2c40,119,80.5,237.9,120.2,357c35.9,107.5,70.9,215.3,106.7,322.8
		c5.3,15.8,8.4,32.8,20.7,45.5c6.4,13.4,4.7,23.3-11.6,26.8c-66.8-53-128.3-111.3-182-177.7c-125.4-155.2-202.8-329.7-216-530.4
		C558.1,919.9,570.5,814.5,594,710.1z"/>
	<path class="st3" d="M1017.8,1036.2c-0.4,22.8,0,45.7-1.7,68.5c-0.6,7.8-3.2,16.7-11.7,23.9c-15.9-32.5-23.7-67.2-35.4-100.4
		c-23.6-66.8-45.2-134.4-67.6-201.6C864.3,715.3,827.2,604,790.1,492.7c-11.1-33.4-23.1-66.6-32.9-100.4
		c-4.7-16.2-12.9-23-29.2-20.1c39.1-67.6,85.8-129.4,141.4-184.4c16.9-6.1,24.2-3.6,29.9,12.9c16.1,46.3,31.1,93,46.9,139.4
		c17.6,52,34,104.4,52,156.2c7.4,21.1,9.7,43.1,15.7,64.4C1019,719.2,1017.6,877.7,1017.8,1036.2z"/>
	<path class="st4" d="M1013.8,560.7c-14.3-21.7-15.1-47.8-23.7-71.5c-24.2-67.3-46-135.5-68.6-203.5c-9-27.1-17.9-54.3-25.8-81.7
		c-4.2-14.3-13-18.4-26.5-16.2c18.8-23.4,41.8-42.5,64.7-61.5c32.1-26.5,56.7-56.8,57.2-103.8c7.4,6.8,10,12.7,10.6,19.8
		c-4.1,19.7-0.1,39.5,1.1,58.9c3.2,49.2,7.2,98.2,7.1,147.6c-0.1,25.4,0,50.8,0,76.2c4.2,32.9,0.6,66,1.9,98.9
		c0.3,7.7-2,15.6,1.9,22.9C1009.6,484.8,1014.5,522.8,1013.8,560.7z"/>
	<path class="st5" d="M963.2,1735.3c11-5.9,10.9-16.5,11.6-26.9c11.8-30,14.3-62.1,18.5-93.4c4.4-32.9,10.2-65.8,9.2-101.4
		c6.7,10.6,0.2,21.6,7.2,29.7c0.7,46.2,10.1,90.6,26.8,133.6c-13.6,32.5-23.7,66.4-35.6,99.5c-3.3,9.2-6.3,21.7-21.5,14
		C973.9,1772,968.5,1753.6,963.2,1735.3z"/>
	<path class="st6" d="M979.3,1790.4c9.8,1.1,13.3-4.3,16-13c8.5-27.2,17.6-54.2,27.2-81.1c2.7-7.4,3.7-17,13.9-19.5
		c5.2,13.7,15.9,23.6,24,35.3c-15.8,46.3-29.7,93.3-47.8,138.8c-3.7,9.3-5.5,23.2-21.9,18.1C987,1842.8,983.1,1816.6,979.3,1790.4z"
		/>
	<path class="st7" d="M990.8,1869c11.4-1,13.9-9.8,16.9-18.7c13.8-40.6,27.6-81.2,42-121.6c2.1-6.1,1-15.2,10.8-16.6
		c5.3,2.4,10.6,4.7,15.8,7.1c-23.4,28.8-30.8,62.7-31.4,98.8c-0.8,40.3-14.9,77.4-28,114.7c-3.7,10.7-6.9,23.3-22.5,22.6
		C993.2,1926.6,992,1897.8,990.8,1869z"/>
	<path class="st8" d="M994.5,1955.3c6.5-3.5,12.9-8.1,14.6-15c9.8-38.8,32.3-74,32.7-115.5c0-2.3,2.1-4.5,3.3-6.8
		c-0.5,39.6-5.6,79.1,0,118.7c1.8,12.6,1.6,28.6-12.5,31.4C1019.9,1970.6,1004.4,1967.7,994.5,1955.3z"/>
	<path class="st3" d="M1013.8,446.9c-7.2-7.8-3.6-17.4-3.7-26.2c-0.5-31.9-0.2-63.8-0.1-95.7c7.1,7.9,3.5,17.4,3.7,26.2
		C1014.1,383.1,1013.9,415,1013.8,446.9z"/>
</g>
</svg>
