<?xml version="1.0" encoding="utf-8"?>
<!-- Generator: Adobe Illustrator 26.0.2, SVG Export Plug-In . SVG Version: 6.00 Build 0)  -->
<svg version="1.1" id="Layer_1" xmlns="http://www.w3.org/2000/svg" xmlns:xlink="http://www.w3.org/1999/xlink" x="0px" y="0px"
	 viewBox="0 0 256 252" style="enable-background:new 0 0 256 252;" xml:space="preserve">
<style type="text/css">
	.st0{fill:#7CBCCC;}
</style>
<path class="st0" d="M235.6,194.2c-13.9-0.3-24.7,1-33.8,4.9c-2.6,1-6.8,1-7.1,4.3c1.4,1.4,1.6,3.7,2.8,5.6c2.1,3.5,5.7,8.2,9,10.6
	c3.7,2.8,7.3,5.6,11.1,8c6.8,4.2,14.4,6.6,21.1,10.8c3.8,2.4,7.7,5.6,11.5,8.2c1.9,1.4,3.1,3.7,5.6,4.5v-0.5
	c-1.2-1.6-1.6-3.8-2.8-5.6c-1.7-1.7-3.5-3.3-5.2-5c-5-6.8-11.3-12.7-18.1-17.6c-5.6-3.8-17.7-9-20-15.5c0,0-0.2-0.2-0.3-0.3
	c3.8-0.3,8.4-1.7,12-2.8c5.9-1.6,11.3-1.2,17.4-2.8c2.8-0.7,5.6-1.6,8.4-2.4V197c-3.1-3.1-5.4-7.3-8.7-10.3
	c-8.9-7.7-18.6-15.1-28.7-21.4c-5.4-3.5-12.4-5.7-18.1-8.7c-2.1-1-5.6-1.6-6.8-3.3c-3.1-3.8-4.9-8.9-7.1-13.4
	c-5-9.6-9.9-20.2-14.3-30.3c-3.1-6.8-5-13.6-8.9-19.8c-17.9-29.6-37.4-47.5-67.3-65.1c-6.4-3.7-14.1-5.2-22.3-7.1
	c-4.3-0.2-8.7-0.5-13-0.7c-2.8-1.2-5.6-4.5-8-6.1C34,4.6,8.4-9,1.1,8.9c-4.7,11.3,7,22.4,11,28.2c3,4,6.8,8.5,8.9,13
	c1.2,3,1.6,6.1,2.8,9.2c2.8,7.7,5.4,16.2,9,23.3c1.9,3.7,4,7.5,6.4,10.8c1.4,1.9,3.8,2.8,4.3,5.9c-2.4,3.5-2.6,8.7-4,13
	c-6.3,19.7-3.8,44,5,58.5c2.8,4.3,9.4,13.9,18.3,10.3c7.8-3.1,6.1-13,8.4-21.7c0.5-2.1,0.2-3.5,1.2-4.9c0,0.2,0,0.3,0,0.3
	c2.4,4.9,4.9,9.6,7.1,14.4c5.4,8.5,14.8,17.4,22.6,23.3c4.2,3.1,7.5,8.5,12.7,10.4v-0.5h-0.3c-1-1.6-2.6-2.3-4-3.5
	c-3.1-3.1-6.6-7-9-10.4c-7.3-9.7-13.7-20.5-19.5-31.7c-2.8-5.4-5.2-11.3-7.5-16.7c-1-2.1-1-5.2-2.8-6.3c-2.6,3.8-6.4,7.1-8.4,11.8
	c-3.3,7.5-3.7,16.7-4.9,26.3c-0.7,0.2-0.3,0-0.7,0.3c-5.6-1.4-7.5-7.1-9.6-12c-5.2-12.4-6.1-32.2-1.6-46.5
	c1.2-3.7,6.4-15.1,4.3-18.6c-1-3.3-4.5-5.2-6.4-7.8c-2.3-3.3-4.7-7.5-6.3-11.1c-4.2-9.7-6.3-20.5-10.8-30.3
	c-2.1-4.5-5.7-9.2-8.7-13.4c-3.3-4.7-7-8-9.6-13.6c-0.9-1.9-2.1-5-0.7-7.1c0.3-1.4,1-1.9,2.4-2.3c2.3-1.9,8.7,0.5,11,1.6
	c6.4,2.6,11.8,5,17.2,8.7c2.4,1.7,5,5,8.2,5.9h3.7c5.6,1.2,11.8,0.3,17,1.9c9.2,3,17.6,7.3,25.1,12c22.8,14.4,41.6,35,54.3,59.5
	c2.1,4,3,7.7,4.9,11.8c3.7,8.5,8.2,17.2,11.8,25.6c3.7,8.2,7.1,16.5,12.4,23.3c2.6,3.7,13,5.6,17.7,7.5c3.5,1.6,8.9,3,12,4.9
	c5.9,3.7,11.8,7.8,17.4,11.8C226.4,186.4,235.1,190.7,235.6,194.2L235.6,194.2L235.6,194.2z"/>
<path class="st0" d="M58.2,43c-3,0-5,0.3-7.1,0.9c0,0,0,0.2,0,0.3h0.3c1.4,2.8,3.8,4.7,5.6,7.1c1.4,2.8,2.6,5.6,4,8.4
	c0.2-0.2,0.3-0.3,0.3-0.3c2.4-1.7,3.7-4.5,3.7-8.7c-1-1.2-1.2-2.4-2.1-3.7C61.8,45.3,59.6,44.4,58.2,43L58.2,43L58.2,43z"/>
</svg>
