<?xml version="1.0" encoding="utf-8"?>
<!-- Generator: Adobe Illustrator 26.0.2, SVG Export Plug-In . SVG Version: 6.00 Build 0)  -->
<svg version="1.1" id="Layer_1" xmlns="http://www.w3.org/2000/svg" xmlns:xlink="http://www.w3.org/1999/xlink" x="0px" y="0px"
	 viewBox="0 0 2248.3 2248.3" style="enable-background:new 0 0 2248.3 2248.3;" xml:space="preserve">
<style type="text/css">
	.st0{clip-path:url(#SVGID_00000177471941247663490560000011745045633861694347_);}
	.st1{clip-path:url(#SVGID_00000045619880415792972970000006532640883950215052_);}
	.st2{clip-path:url(#SVGID_00000131368164497924245370000011070449757244220089_);}
	.st3{clip-path:url(#SVGID_00000032647372143922180650000000731233825719266180_);}
	.st4{fill-rule:evenodd;clip-rule:evenodd;fill:#6E81B6;}
	.st5{fill-rule:evenodd;clip-rule:evenodd;fill:#FFFFFF;}
	.st6{fill-rule:evenodd;clip-rule:evenodd;}
</style>
<g>
	<defs>
		<path id="SVGID_1_" d="M1122.1,1709.2c616.4,0,1116.2-262.9,1116.2-587.2s-499.7-587.2-1116.2-587.2S5.9,797.8,5.9,1122.1
			S505.6,1709.2,1122.1,1709.2L1122.1,1709.2z"/>
	</defs>
	<clipPath id="SVGID_00000121989150058473012830000006485587804342067079_">
		<use xlink:href="#SVGID_1_"  style="overflow:visible;"/>
	</clipPath>
	<g style="clip-path:url(#SVGID_00000121989150058473012830000006485587804342067079_);">
		<g>
			<defs>
				<rect id="SVGID_00000088850202360716232010000002840123486212343687_" x="5.9" y="534.9" width="2232.3" height="1174.3"/>
			</defs>
			<clipPath id="SVGID_00000173869781451685630670000018257171971375837075_">
				<use xlink:href="#SVGID_00000088850202360716232010000002840123486212343687_"  style="overflow:visible;"/>
			</clipPath>
			<g style="clip-path:url(#SVGID_00000173869781451685630670000018257171971375837075_);">
				
					<image style="overflow:visible;enable-background:new    ;" width="365" height="196" xlink:href="33B573F1.png"  transform="matrix(6.1302 0 0 -6.1302 5.5599 1725.5996)">
				</image>
			</g>
		</g>
	</g>
</g>
<g>
	<defs>
		<path id="SVGID_00000087374032780341325970000004982277173588939929_" d="M1122.1,1709.2c616.4,0,1116.2-262.9,1116.2-587.2
			s-499.7-587.2-1116.2-587.2S5.9,797.8,5.9,1122.1S505.6,1709.2,1122.1,1709.2L1122.1,1709.2z"/>
	</defs>
	<clipPath id="SVGID_00000182519954818797565210000004348146076616812476_">
		<use xlink:href="#SVGID_00000087374032780341325970000004982277173588939929_"  style="overflow:visible;"/>
	</clipPath>
	<g style="clip-path:url(#SVGID_00000182519954818797565210000004348146076616812476_);">
		<g>
			<defs>
				<rect id="SVGID_00000031180112440369687480000017091020825376140955_" x="5.9" y="534.9" width="2232.3" height="1174.3"/>
			</defs>
			<clipPath id="SVGID_00000088850814026661015170000014879971458810387636_">
				<use xlink:href="#SVGID_00000031180112440369687480000017091020825376140955_"  style="overflow:visible;"/>
			</clipPath>
			<g style="clip-path:url(#SVGID_00000088850814026661015170000014879971458810387636_);">
				
					<image style="overflow:visible;enable-background:new    ;" width="365" height="196" xlink:href="33B573F7.png"  transform="matrix(6.1302 0 0 -6.1302 5.5599 1725.5996)">
				</image>
			</g>
		</g>
	</g>
</g>
<path class="st4" d="M1122.1,1665.6c592.4,0,1072.6-243.4,1072.6-543.5s-480.2-543.5-1072.6-543.5
	c-592.4,0-1072.6,243.4-1072.6,543.5S529.7,1665.6,1122.1,1665.6L1122.1,1665.6z"/>
<path class="st5" d="M1339.3,1297.8l53.2-273.8c12-61.8,2-107.9-29.7-137c-30.7-28.2-82.8-41.9-159.3-41.9h-92.1l26.4-135.7
	c1.8-9.4-4.3-18.6-13.8-20.5c-1.1-0.2-2.2-0.3-3.3-0.3H993.5c-8.4,0-15.5,5.9-17.1,14.1l-56.5,290.7c-5.1-32.7-17.8-60.8-38.1-84
	c-37.3-42.7-96.3-64.3-175.4-64.3H460c-8.4,0-15.5,5.9-17.1,14.1l-114.4,588.4c-1,5.1,0.3,10.4,3.7,14.4c3.3,4,8.2,6.4,13.5,6.4
	h128.2c8.4,0,15.5-5.9,17.1-14.1l27.7-142.3H614c50.1,0,92.1-5.4,125-16.1c33.6-10.9,64.5-29.4,91.7-54.9
	c22-20.2,40.2-42.9,54.2-67.3L862,1291.1c-1,5.1,0.3,10.4,3.7,14.4c3.3,4,8.2,6.4,13.5,6.4h127.2c8.4,0,15.5-5.9,17.1-14.1l62.8-323
	h87.3c37.2,0,48.1,7.4,51,10.6c2.7,2.9,8.3,13.1,2,45.4l-50.6,260.3c-1.8,9.5,4.4,18.6,13.9,20.5c1.1,0.2,2.2,0.3,3.3,0.3h129.2
	C1330.6,1311.8,1337.8,1305.9,1339.3,1297.8L1339.3,1297.8z M749.8,1071.5c-8,41-23,70.3-44.7,87c-22,17-57.3,25.6-104.8,25.6h-56.8
	l41.1-211.4h73.4c54,0,75.7,11.5,84.4,21.2C754.4,1007.4,757,1034.2,749.8,1071.5z M1875,909.4c-37.3-42.7-96.3-64.3-175.4-64.3
	h-246.5c-8.4,0-15.5,5.9-17.1,14.1l-114.3,588.4c-1,5.1,0.3,10.4,3.6,14.4c3.3,4,8.3,6.4,13.4,6.4H1467c8.4,0,15.5-5.9,17.1-14.1
	l27.7-142.3h95.4c50.1,0,92.1-5.4,125-16.1c33.6-10.9,64.5-29.4,91.7-54.9c22.7-20.9,41.4-44.3,55.6-69.7
	c14.2-25.3,24.3-53.6,30.2-84C1924.3,1012.2,1912.6,952.4,1875,909.4L1875,909.4z M1750.2,1071.5c-8,41-23,70.3-44.7,87
	c-22.1,17-57.3,25.6-104.8,25.6h-56.8l41.1-211.4h73.5c54,0,75.7,11.5,84.4,21.2C1754.9,1007.4,1757.5,1034.2,1750.2,1071.5
	L1750.2,1071.5z"/>
<path class="st6" d="M657.9,955.3c48.7,0,81.2,9,97.4,27c16.2,18,20.1,48.8,11.6,92.6c-8.9,45.5-25.9,78-51.2,97.5
	s-63.8,29.2-115.5,29.2h-78l47.9-246.3H657.9L657.9,955.3z M345.6,1450.9h128.2l30.4-156.4H614c48.4,0,88.3-5.1,119.6-15.3
	c31.3-10.2,59.7-27.2,85.3-51.2c21.5-19.7,38.9-41.5,52.2-65.3c13.3-23.8,22.7-50.1,28.3-78.8c13.6-69.8,3.3-124.1-30.7-163
	c-34-38.9-88.1-58.4-162.2-58.4H460L345.6,1450.9z M993.5,706h127.2l-30.4,156.4h113.3c71.3,0,120.5,12.4,147.5,37.3
	c27.1,24.9,35.2,65.2,24.3,120.9l-53.2,273.8H1193l50.6-260.4c5.7-29.6,3.6-49.8-6.4-60.6c-10-10.8-31.3-16.2-63.8-16.2h-101.6
	l-65.5,337.1H879.1L993.5,706z M1658.4,955.3c48.7,0,81.1,9,97.4,27c16.2,18,20.1,48.8,11.6,92.6c-8.8,45.5-25.9,78-51.2,97.5
	c-25.3,19.5-63.8,29.2-115.4,29.2h-78l47.8-246.3H1658.4z M1346.1,1450.9h128.2l30.4-156.4h109.8c48.5,0,88.3-5.1,119.6-15.3
	c31.3-10.2,59.7-27.2,85.3-51.2c21.5-19.7,38.9-41.5,52.2-65.3c13.3-23.8,22.7-50.1,28.4-78.8c13.6-69.8,3.3-124.1-30.7-163
	c-34-38.9-88.1-58.4-162.3-58.4h-246.5L1346.1,1450.9L1346.1,1450.9z"/>
</svg>
