<svg width="81" height="81" viewBox="0 0 81 81" fill="none" xmlns="http://www.w3.org/2000/svg">
<path fill-rule="evenodd" clip-rule="evenodd" d="M17.3807 23.1025V57.6071C17.3807 57.9088 17.5136 58.043 17.7795 58.043H24.0926H24.2256C24.4581 58.0094 24.6243 57.8083 24.5911 57.5735V46.8097H24.5912C25.2224 46.8097 25.6876 46.8097 26.0198 46.8433C26.3521 46.8768 26.8837 46.8768 27.6812 46.8768C30.4058 46.8768 32.8979 46.575 35.1573 45.7367C37.3171 44.9319 39.1778 43.5236 40.5069 41.6458C41.836 39.768 42.5006 37.3872 42.5006 34.5034C42.5006 32.9945 42.2347 31.5526 41.7363 30.1443C41.2047 28.7024 40.374 27.3946 39.3107 26.3216C38.0481 25.0809 36.5196 24.142 34.8583 23.572C32.9976 22.8678 30.7381 22.5325 28.0135 22.5325C27.0166 22.5325 26.0198 22.5325 24.9898 22.566C24.4925 22.5822 24.0107 22.5906 23.5444 22.5987C23.0448 22.6074 22.563 22.6157 22.099 22.6331C21.6639 22.6493 21.2444 22.6577 20.8367 22.6658C20.4039 22.6745 19.9844 22.6829 19.5737 22.7001C18.8095 22.7337 18.2779 22.7337 17.713 22.7337C17.4804 22.7337 17.3807 22.8678 17.3807 23.1025ZM24.6243 40.4722V29.2054C24.8569 29.1718 25.3221 29.1383 25.9866 29.1718C26.6179 29.1383 27.3821 29.1383 28.2461 29.1383C29.6084 29.1048 30.9375 29.306 32.1669 29.8089C33.1305 30.1778 33.9279 30.8484 34.4928 31.7203C35.0244 32.6256 35.2902 33.6651 35.257 34.7046C35.257 36.18 34.9247 37.3201 34.227 38.1584C33.496 38.9967 32.5656 39.6338 31.5023 39.9356C30.2729 40.338 28.9771 40.5392 27.6812 40.5392H25.9201C25.5501 40.5392 25.1514 40.5103 24.724 40.4794C24.691 40.477 24.6577 40.4746 24.6243 40.4722Z" fill="#31A8FF"/>
<path d="M63.2344 38.4266C62.2376 37.8901 61.1743 37.5213 60.0446 37.2866C58.8151 37.0183 57.5857 36.8506 56.3231 36.8506C55.6586 36.8171 54.9608 36.9177 54.3295 37.0854C53.8975 37.186 53.532 37.4207 53.2994 37.756C53.1333 38.0243 53.0336 38.3596 53.0336 38.6614C53.0336 38.9632 53.1665 39.2649 53.3659 39.5332C53.6649 39.9021 54.0636 40.2038 54.4956 40.4386C55.2598 40.841 56.0573 41.2098 56.8547 41.5451C58.649 42.1487 60.3768 42.987 61.9717 43.993C63.0682 44.6971 63.9654 45.636 64.5967 46.7761C65.1283 47.8492 65.3941 49.0228 65.3609 50.2299C65.3941 51.806 64.929 53.382 64.0651 54.6897C63.1347 56.031 61.8388 57.0705 60.3436 57.6741C58.7155 58.3782 56.7218 58.7471 54.3295 58.7471C52.801 58.7471 51.3058 58.613 49.8106 58.3112C48.6476 58.11 47.4846 57.7411 46.4214 57.2381C46.1888 57.104 46.0226 56.8693 46.0559 56.601V50.7665C46.0559 50.6659 46.0891 50.5317 46.1888 50.4647C46.2885 50.3976 46.3881 50.4311 46.4878 50.4982C47.7837 51.2694 49.146 51.806 50.608 52.1413C51.8706 52.4766 53.1997 52.6443 54.5288 52.6443C55.7915 52.6443 56.6886 52.4766 57.2867 52.1748C57.8183 51.9401 58.1838 51.37 58.1838 50.7665C58.1838 50.297 57.918 49.8611 57.3864 49.4252C56.8547 48.9893 55.7582 48.4863 54.1301 47.8492C52.4355 47.2456 50.8738 46.4408 49.4118 45.4349C48.3818 44.6971 47.5179 43.7247 46.8866 42.5846C46.3549 41.5116 46.0891 40.338 46.1223 39.1643C46.1223 37.7225 46.5211 36.3477 47.2521 35.107C48.0827 33.7657 49.3121 32.6927 50.7409 32.022C52.3026 31.2172 54.263 30.8484 56.6221 30.8484C57.9845 30.8484 59.38 30.949 60.7423 31.1502C61.7391 31.2843 62.7027 31.5526 63.5999 31.9214C63.7328 31.9549 63.8657 32.0891 63.9321 32.2232C63.9654 32.3573 63.9986 32.4915 63.9986 32.6256V38.0913C63.9986 38.2255 63.9321 38.3596 63.8325 38.4266C63.5334 38.4937 63.3673 38.4937 63.2344 38.4266Z" fill="#31A8FF"/>
</svg>
