<svg id="Layer_1" data-name="Layer 1" xmlns="http://www.w3.org/2000/svg" width="233" height="236" viewBox="0 0 233 236">
  <defs>
    <style>
      .cls-1 {
        fill: #28253a;
      }

      .cls-2 {
        fill: #37c5ff;
      }

      .cls-3 {
        fill: none;
        stroke: #37c5ff;
        stroke-miterlimit: 10;
        stroke-width: 10px;
      }
    </style>
  </defs>
  <g>
    <path class="cls-1" d="M213.3,78.55a105.08,105.08,0,0,1-23.1,115.1,105.82,105.82,0,0,1-172.4-34.3,104.73,104.73,0,0,1-8-40.4,102.92,102.92,0,0,1,8-40.4,105.62,105.62,0,0,1,97.7-65.3,102.92,102.92,0,0,1,40.4,8,107.34,107.34,0,0,1,57.4,57.3Zm-44.9,60.1c0-4.7-1.4-8.3-4.2-10.9s-7.9-4.8-15.2-6.5c-7.1-1.8-11.2-3.2-12.4-4.2a3.17,3.17,0,0,1-1.3-2.6,3.22,3.22,0,0,1,1.5-3c1.5-1.1,4-1.7,7.5-1.7a10.58,10.58,0,0,1,6.6,1.8,8.56,8.56,0,0,1,3,4.9l12.7-2.6c-1.3-4.9-3.6-8.6-7.1-11-3.3-2.5-8.4-3.7-15.5-3.7-7.3,0-12.7,1.7-16.1,5a16.1,16.1,0,0,0-5.1,12c0,5.4,2,9.5,6,12.4,2.9,2.2,9.8,4.6,20.8,7.3a12.4,12.4,0,0,1,4.4,1.9,4.47,4.47,0,0,1,.9,2.8,5,5,0,0,1-1.6,3.9q-2.7,2.1-7.8,2.1c-3.3,0-5.8-.8-7.5-2.2a11,11,0,0,1-3.4-6.5l-13.7,2.3a21.71,21.71,0,0,0,8,12.5c4.1,3.1,9.5,4.7,16.4,4.7,7.6,0,13.4-1.8,17.3-5.5A17.9,17.9,0,0,0,168.4,138.65ZM116.3,103c0-6.1-1.4-11-4.2-14.9a18.46,18.46,0,0,0-10.1-7.5c-2.6-.7-8.2-1.1-16.9-1.1H62.6v76.4H76.7v-28.7H86a73.2,73.2,0,0,0,14.5-1.1,21.3,21.3,0,0,0,7.5-3.5,20.69,20.69,0,0,0,6-7.7C115.6,111.65,116.3,107.65,116.3,103Z"/>
    <path class="cls-2" d="M164.2,127.75c2.8,2.6,4.2,6.2,4.2,10.9a17.43,17.43,0,0,1-5.9,13.1c-3.9,3.6-9.7,5.5-17.3,5.5-6.8,0-12.3-1.6-16.4-4.7a21.54,21.54,0,0,1-8-12.5l13.7-2.3a11.29,11.29,0,0,0,3.4,6.5c1.7,1.5,4.2,2.2,7.5,2.2s6-.7,7.8-2.1a4.72,4.72,0,0,0,1.6-3.9,4.47,4.47,0,0,0-.9-2.8,12.4,12.4,0,0,0-4.4-1.9c-10.9-2.6-17.8-5.1-20.8-7.3-4-2.9-6-7.1-6-12.4a16.1,16.1,0,0,1,5.1-12c3.5-3.4,8.9-5,16.1-5s12.2,1.3,15.5,3.7,5.8,6.1,7.1,11l-12.7,2.6a8.25,8.25,0,0,0-3-4.9,10.78,10.78,0,0,0-6.6-1.8c-3.5,0-6,.6-7.5,1.7a3.22,3.22,0,0,0-1.5,3,3.17,3.17,0,0,0,1.3,2.6c1.2,1,5.4,2.4,12.4,4.2Q160,123.85,164.2,127.75Z"/>
    <path class="cls-2" d="M112.1,88.05c2.8,3.9,4.2,8.8,4.2,14.9a29.74,29.74,0,0,1-2.2,11.9,20.69,20.69,0,0,1-6,7.7,21.3,21.3,0,0,1-7.5,3.5,73.92,73.92,0,0,1-14.5,1.1H76.8v28.9H62.6V79.65H85.2c8.7,0,14.3.3,16.9,1.1A17.42,17.42,0,0,1,112.1,88.05Zm-11.9,21.1a11.41,11.41,0,0,0,1.7-6.1,9.13,9.13,0,0,0-2.5-6.7,9.24,9.24,0,0,0-5.8-3.3c-1.6-.4-5-.6-10.1-.6H76.7v21.7h7.7c5.6,0,9.4-.4,11.2-1.1A13.48,13.48,0,0,0,100.2,109.15Z"/>
    <path class="cls-1" d="M101.9,103.05a11.41,11.41,0,0,1-1.7,6.1,13.13,13.13,0,0,1-4.5,3.9c-1.8.7-5.6,1.1-11.2,1.1H76.8V92.45h6.8a53.37,53.37,0,0,1,10.1.6,9.51,9.51,0,0,1,5.8,3.3A10.15,10.15,0,0,1,101.9,103.05Z"/>
    <path class="cls-3" d="M75,216.75a105.62,105.62,0,0,1-65.3-97.7,102.92,102.92,0,0,1,8-40.4,105.62,105.62,0,0,1,97.7-65.3,102.92,102.92,0,0,1,40.4,8,105.75,105.75,0,0,1,57.4,138.1,103.83,103.83,0,0,1-23.1,34.3,105.67,105.67,0,0,1-115.1,23Z"/>
  </g>
</svg>
