<svg id="Layer_1" data-name="Layer 1" xmlns="http://www.w3.org/2000/svg" width="410.87" height="410.87" viewBox="0 0 410.87 410.87">
  <defs>
    <style>
      .cls-1 {
        fill: #cc709e;
        fill-rule: evenodd;
      }

      .cls-2 {
        fill: #fff;
      }
    </style>
  </defs>
  <g>
    <path class="cls-1" d="M210,4.56c113.46,0,205.43,92,205.43,205.44S323.46,415.43,210,415.43,4.56,323.46,4.56,210,96.54,4.56,210,4.56" transform="translate(-4.56 -4.56)"/>
    <path class="cls-2" d="M338.86,92.49C329.56,56,269.06,44,211.8,64.36c-34.07,12.1-71,31.1-97.48,55.91-31.54,29.5-36.57,55.17-34.5,65.9,7.31,37.86,59.18,62.6,80.5,81v.12c-6.28,3.09-52.3,26.38-63.07,50.19-11.36,25.11,1.81,43.14,10.53,45.56,27,7.52,54.75-6,69.65-28.23,14.37-21.44,13.18-49.14,6.93-62.92,8.62-2.27,18.67-3.29,31.44-1.8,36,4.21,43.11,26.71,41.75,36.13s-8.91,14.59-11.43,16.16-3.3,2.1-3.09,3.26c.31,1.69,1.48,1.63,3.63,1.27,3-.5,18.93-7.66,19.61-25.05.87-22.07-20.28-46.75-57.73-46.11-15.43.27-25.12,1.73-32.13,4.34-.52-.59-1-1.18-1.59-1.76-23.15-24.7-65.95-42.17-64.13-75.38.66-12.07,4.85-43.86,82.23-82.42,63.39-31.59,114.14-22.89,122.91-3.63,12.53,27.52-27.12,78.67-92.95,86.05-25.08,2.81-38.29-6.91-41.57-10.53-3.46-3.81-4-4-5.27-3.27-2.1,1.17-.77,4.53,0,6.54,2,5.12,10,14.19,23.78,18.7,12.1,4,41.55,6.15,77.16-7.63,39.88-15.42,71-58.34,61.88-94.22M169.17,278.43c3,11.06,2.66,21.37-.42,30.71-.35,1-.72,2.06-1.13,3.07s-.86,2-1.33,3a57.8,57.8,0,0,1-9.49,13.84c-11.94,13-28.62,17.94-35.77,13.79-7.72-4.47-3.85-22.83,10-37.46,14.89-15.74,36.31-25.86,36.31-25.86l0-.06,1.88-1" transform="translate(-4.56 -4.56)"/>
  </g>
</svg>
