<svg width="971" height="898" viewBox="0 0 971 898" fill="none" xmlns="http://www.w3.org/2000/svg">
<circle cx="484.823" cy="531.156" r="355.677" stroke="#25262A" stroke-width="13"/>
<circle cx="484.823" cy="531.156" r="355.677" stroke="#25262A" stroke-width="13"/>
<circle cx="484.823" cy="531.156" r="329.765" stroke="#25262A" stroke-width="10"/>
<circle cx="484.823" cy="531.156" r="251.519" fill="#25262A" stroke="#25262A" stroke-width="7"/>
<g filter="url(#filter0_d_4_146)">
<circle cx="786.36" cy="349.236" r="60.6398" fill="#25262A"/>
<circle cx="786.36" cy="349.236" r="68.6398" stroke="#2D2E32" stroke-width="16"/>
</g>
<path fill-rule="evenodd" clip-rule="evenodd" d="M771.146 360.431H784.896L787.927 368.783C788.001 369.029 788.26 369.204 788.519 369.169H796.244C796.613 369.169 796.724 368.994 796.613 368.608L783.122 332.462C783.085 332.286 782.937 332.181 782.642 332.181H773.179H773.068C772.884 332.216 772.736 332.392 772.773 332.567C772.773 333.339 772.699 334.111 772.551 334.848C772.446 335.146 772.36 335.427 772.279 335.69C772.246 335.799 772.214 335.904 772.181 336.006L760.279 368.538C760.168 368.959 760.279 369.169 760.686 369.169H767.635C767.968 369.204 768.263 368.994 768.337 368.678L771.146 360.431ZM782.679 353.307H773.29C773.845 351.833 774.399 350.184 774.916 348.394C775.283 347.308 775.635 346.221 775.981 345.152C776.194 344.494 776.406 343.842 776.617 343.2C777.134 341.691 777.541 340.182 777.873 338.673H777.947C778.092 339.143 778.236 339.634 778.386 340.147C778.506 340.555 778.63 340.976 778.761 341.411C779.056 342.428 779.389 343.446 779.758 344.534C779.943 345.078 780.119 345.613 780.294 346.148C780.47 346.683 780.646 347.218 780.83 347.762C781.163 348.815 781.496 349.833 781.828 350.78C782.161 351.693 782.457 352.57 782.679 353.307Z" fill="#CFA40A"/>
<path fill-rule="evenodd" clip-rule="evenodd" d="M801.381 336.954C802.269 337.761 803.451 338.217 804.671 338.182C805.928 338.252 807.184 337.796 808.035 336.954C808.922 336.076 809.365 334.918 809.328 333.725C809.365 332.567 808.922 331.444 808.109 330.602C807.295 329.795 806.186 329.374 804.745 329.374C803.525 329.374 802.342 329.795 801.455 330.602C800.568 331.409 800.088 332.532 800.125 333.725C800.088 334.918 800.531 336.076 801.381 336.954ZM800.531 341.621V368.643C800.531 368.994 800.716 369.204 801.086 369.204H808.33C808.663 369.204 808.811 369.029 808.811 368.643V341.621C808.811 341.305 808.663 341.13 808.33 341.13H801.012C800.679 341.13 800.531 341.27 800.531 341.621Z" fill="#CFA40A"/>
<g filter="url(#filter1_d_4_146)">
<circle cx="184.64" cy="709.64" r="60.6398" fill="#25262A"/>
<circle cx="184.64" cy="709.64" r="68.6398" stroke="#2D2E32" stroke-width="16"/>
</g>
<path fill-rule="evenodd" clip-rule="evenodd" d="M161.381 692.103V726.607C161.381 726.909 161.514 727.043 161.779 727.043H168.093H168.226C168.458 727.009 168.624 726.808 168.591 726.574V715.81H168.591C169.222 715.81 169.688 715.81 170.02 715.843C170.352 715.877 170.884 715.877 171.681 715.877C174.406 715.877 176.898 715.575 179.157 714.737C181.317 713.932 183.178 712.524 184.507 710.646C185.836 708.768 186.501 706.387 186.501 703.503C186.501 701.994 186.235 700.553 185.736 699.144C185.205 697.702 184.374 696.395 183.311 695.322C182.048 694.081 180.52 693.142 178.858 692.572C176.998 691.868 174.738 691.532 172.013 691.532C171.017 691.532 170.02 691.532 168.99 691.566C168.492 691.582 168.011 691.591 167.544 691.599C167.045 691.607 166.563 691.616 166.099 691.633C165.664 691.649 165.244 691.658 164.837 691.666C164.404 691.674 163.984 691.683 163.574 691.7C162.81 691.734 162.278 691.734 161.713 691.734C161.48 691.734 161.381 691.868 161.381 692.103ZM168.624 709.472V698.205C168.857 698.172 169.322 698.138 169.987 698.172C170.618 698.138 171.382 698.138 172.246 698.138C173.608 698.105 174.937 698.306 176.167 698.809C177.13 699.178 177.928 699.848 178.493 700.72C179.024 701.626 179.29 702.665 179.257 703.705C179.257 705.18 178.925 706.32 178.227 707.158C177.496 707.997 176.566 708.634 175.502 708.936C174.273 709.338 172.977 709.539 171.681 709.539H169.92C169.55 709.539 169.151 709.51 168.724 709.479C168.691 709.477 168.658 709.475 168.624 709.472Z" fill="#31A8FF"/>
<path d="M207.234 707.427C206.238 706.89 205.174 706.521 204.045 706.287C202.815 706.018 201.586 705.851 200.323 705.851C199.659 705.817 198.961 705.918 198.329 706.085C197.898 706.186 197.532 706.421 197.299 706.756C197.133 707.024 197.034 707.36 197.034 707.661C197.034 707.963 197.167 708.265 197.366 708.533C197.665 708.902 198.064 709.204 198.496 709.439C199.26 709.841 200.057 710.21 200.855 710.545C202.649 711.149 204.377 711.987 205.972 712.993C207.068 713.697 207.965 714.636 208.597 715.776C209.128 716.849 209.394 718.023 209.361 719.23C209.394 720.806 208.929 722.382 208.065 723.69C207.135 725.031 205.839 726.07 204.344 726.674C202.715 727.378 200.722 727.747 198.329 727.747C196.801 727.747 195.306 727.613 193.811 727.311C192.648 727.11 191.485 726.741 190.421 726.238C190.189 726.104 190.023 725.869 190.056 725.601V719.766C190.056 719.666 190.089 719.532 190.189 719.465C190.288 719.398 190.388 719.431 190.488 719.498C191.784 720.269 193.146 720.806 194.608 721.141C195.871 721.477 197.2 721.644 198.529 721.644C199.791 721.644 200.689 721.477 201.287 721.175C201.818 720.94 202.184 720.37 202.184 719.766C202.184 719.297 201.918 718.861 201.386 718.425C200.855 717.989 199.758 717.486 198.13 716.849C196.436 716.246 194.874 715.441 193.412 714.435C192.382 713.697 191.518 712.725 190.887 711.585C190.355 710.512 190.089 709.338 190.122 708.164C190.122 706.722 190.521 705.348 191.252 704.107C192.083 702.766 193.312 701.693 194.741 701.022C196.303 700.217 198.263 699.848 200.622 699.848C201.984 699.848 203.38 699.949 204.742 700.15C205.739 700.284 206.703 700.553 207.6 700.921C207.733 700.955 207.866 701.089 207.932 701.223C207.965 701.357 207.999 701.491 207.999 701.626V707.091C207.999 707.225 207.932 707.36 207.832 707.427C207.533 707.494 207.367 707.494 207.234 707.427Z" fill="#31A8FF"/>
<g filter="url(#filter2_d_4_146)">
<circle cx="484.64" cy="179.64" r="60.6398" fill="#25262A"/>
<circle cx="484.64" cy="179.64" r="68.6398" stroke="#2D2E32" stroke-width="16"/>
</g>
<path fill-rule="evenodd" clip-rule="evenodd" d="M530 180.011C530 174.06 522.537 168.424 511.089 164.922C513.733 153.276 512.554 144.014 507.383 141.045C506.189 140.351 504.797 140.022 503.274 140.022V144.109C504.116 144.109 504.797 144.277 505.369 144.584C507.866 146.009 508.943 151.448 508.101 158.445C507.896 160.163 507.566 161.976 507.163 163.825C503.567 162.948 499.641 162.268 495.518 161.829C493.042 158.445 490.471 155.367 487.886 152.677C493.862 147.121 499.473 144.087 503.289 144.087V140C498.242 140 491.643 143.59 484.963 149.818C478.284 143.626 471.685 140.073 466.638 140.073V144.16C470.432 144.16 476.064 147.179 482.048 152.691C479.478 155.382 476.914 158.437 474.475 161.829C470.33 162.268 466.404 162.948 462.808 163.84C462.383 162.012 462.075 160.236 461.855 158.532C460.991 151.536 462.061 146.097 464.536 144.65C465.085 144.321 465.803 144.174 466.646 144.174V140.095C465.107 140.095 463.708 140.424 462.5 141.119C457.344 144.087 456.187 153.335 458.853 164.944C447.427 168.453 440 174.075 440 180.011C440 185.962 447.463 191.598 458.911 195.1C456.267 206.746 457.446 216.008 462.617 218.977C463.811 219.671 465.203 220 466.748 220C471.794 220 478.394 216.41 485.073 210.182C491.753 216.374 498.352 219.927 503.398 219.927C504.937 219.927 506.335 219.598 507.544 218.903C512.7 215.935 513.857 206.687 511.191 195.078C522.573 191.584 530 185.94 530 180.011ZM493.364 180.011C493.364 175.391 489.614 171.64 484.978 171.64C480.349 171.64 476.592 175.383 476.592 180.011C476.592 184.639 480.342 188.382 484.978 188.382C489.614 188.374 493.364 184.631 493.364 180.011ZM506.116 167.795C505.435 170.156 504.592 172.591 503.64 175.025C502.886 173.563 502.102 172.094 501.238 170.631C500.396 169.169 499.495 167.736 498.594 166.347C501.201 166.735 503.713 167.21 506.116 167.795ZM497.715 187.3C496.287 189.771 494.814 192.117 493.291 194.296C490.559 194.537 487.791 194.661 485 194.661C482.231 194.661 479.463 194.53 476.746 194.311C475.222 192.132 473.735 189.807 472.307 187.351C470.916 184.953 469.648 182.519 468.491 180.062C469.626 177.606 470.916 175.157 472.285 172.759C473.713 170.288 475.186 167.941 476.709 165.763C479.441 165.521 482.209 165.397 485 165.397C487.769 165.397 490.537 165.529 493.254 165.748C494.778 167.927 496.265 170.251 497.693 172.708C499.084 175.106 500.352 177.54 501.509 179.996C500.352 182.445 499.092 184.894 497.715 187.3ZM503.64 184.916C504.629 187.373 505.471 189.822 506.174 192.205C503.772 192.79 501.238 193.287 498.616 193.667C499.517 192.256 500.41 190.809 501.26 189.325C502.095 187.863 502.886 186.379 503.64 184.916ZM485.037 204.45C483.33 202.696 481.624 200.737 479.939 198.595C481.587 198.668 483.279 198.726 484.985 198.726C486.707 198.726 488.413 198.69 490.083 198.595C488.428 200.737 486.721 202.696 485.037 204.45ZM471.392 193.667C468.784 193.28 466.272 192.805 463.87 192.22C464.551 189.858 465.393 187.424 466.345 184.989C467.1 186.452 467.883 187.921 468.748 189.383C469.612 190.853 470.491 192.278 471.392 193.667ZM484.941 155.564C486.648 157.319 488.354 159.278 490.039 161.42C488.391 161.347 486.699 161.288 484.993 161.288C483.271 161.288 481.565 161.325 479.895 161.42C481.55 159.278 483.257 157.319 484.941 155.564ZM471.37 166.347C470.469 167.758 469.575 169.206 468.726 170.69C467.883 172.152 467.092 173.621 466.338 175.084C465.349 172.627 464.507 170.178 463.804 167.795C466.213 167.225 468.748 166.735 471.37 166.347ZM454.766 189.274C448.269 186.51 444.072 182.884 444.072 180.011C444.072 177.138 448.276 173.49 454.766 170.748C456.34 170.069 458.069 169.469 459.849 168.899C460.896 172.488 462.273 176.224 463.979 180.048C462.295 183.856 460.933 187.57 459.907 191.145C458.091 190.575 456.362 189.953 454.766 189.274ZM464.639 215.438C462.141 214.013 461.064 208.574 461.907 201.577C462.112 199.859 462.441 198.046 462.844 196.197C466.44 197.074 470.366 197.754 474.49 198.192C476.965 201.577 479.536 204.655 482.122 207.345C476.138 212.894 470.527 215.935 466.711 215.935C465.884 215.913 465.188 215.753 464.639 215.438ZM508.152 201.49C509.016 208.486 507.947 213.925 505.471 215.372C504.922 215.701 504.204 215.848 503.362 215.848C499.568 215.848 493.936 212.828 487.952 207.316C490.522 204.626 493.086 201.57 495.525 198.178C499.67 197.739 503.596 197.059 507.192 196.16C507.617 198.01 507.947 199.786 508.152 201.49ZM515.212 189.274C513.638 189.953 511.909 190.553 510.129 191.123C509.082 187.534 507.705 183.798 505.999 179.974C507.683 176.166 509.045 172.452 510.071 168.877C511.887 169.447 513.608 170.069 515.227 170.741C521.724 173.505 525.92 177.131 525.92 180.004C525.906 182.884 521.709 186.525 515.212 189.274Z" fill="#00D8FF"/>
<g filter="url(#filter3_d_4_146)">
<circle cx="184.116" cy="349.236" r="60.6398" fill="#25262A"/>
<circle cx="184.116" cy="349.236" r="68.6398" stroke="#2D2E32" stroke-width="16"/>
</g>
<path d="M176.474 379.639C182.071 379.639 186.608 375.102 186.608 369.505V359.371H176.474C170.877 359.371 166.339 363.908 166.339 369.505C166.339 375.102 170.877 379.639 176.474 379.639Z" fill="#0ACF83"/>
<path d="M166.339 349.236C166.339 343.639 170.877 339.102 176.474 339.102H186.608V359.371H176.474C170.877 359.371 166.339 354.833 166.339 349.236Z" fill="#A259FF"/>
<path d="M166.339 328.968C166.339 323.371 170.877 318.833 176.474 318.833H186.608V339.102H176.474C170.877 339.102 166.339 334.565 166.339 328.968Z" fill="#F24E1E"/>
<path d="M186.608 318.833H196.742C202.339 318.833 206.877 323.371 206.877 328.968C206.877 334.565 202.339 339.102 196.742 339.102H186.608V318.833Z" fill="#FF7262"/>
<path d="M206.877 349.236C206.877 354.833 202.339 359.371 196.742 359.371C191.145 359.371 186.608 354.833 186.608 349.236C186.608 343.639 191.145 339.102 196.742 339.102C202.339 339.102 206.877 343.639 206.877 349.236Z" fill="#1ABCFE"/>
<g filter="url(#filter4_d_4_146)">
<circle cx="786.64" cy="708.64" r="60.6398" fill="#25262A"/>
<circle cx="786.64" cy="708.64" r="68.6398" stroke="#2D2E32" stroke-width="16"/>
</g>
<path d="M753.26 709.4C753.26 706.928 753.812 704.72 754.916 702.776C756.044 700.808 757.568 699.284 759.488 698.204C761.432 697.1 763.604 696.548 766.004 696.548C768.812 696.548 771.272 697.268 773.384 698.708C775.496 700.148 776.972 702.14 777.812 704.684H772.016C771.44 703.484 770.624 702.584 769.568 701.984C768.536 701.384 767.336 701.084 765.968 701.084C764.504 701.084 763.196 701.432 762.044 702.128C760.916 702.8 760.028 703.76 759.38 705.008C758.756 706.256 758.444 707.72 758.444 709.4C758.444 711.056 758.756 712.52 759.38 713.792C760.028 715.04 760.916 716.012 762.044 716.708C763.196 717.38 764.504 717.716 765.968 717.716C767.336 717.716 768.536 717.416 769.568 716.816C770.624 716.192 771.44 715.28 772.016 714.08H777.812C776.972 716.648 775.496 718.652 773.384 720.092C771.296 721.508 768.836 722.216 766.004 722.216C763.604 722.216 761.432 721.676 759.488 720.596C757.568 719.492 756.044 717.968 754.916 716.024C753.812 714.08 753.26 711.872 753.26 709.4ZM800.945 711.38H794.141V718.364H789.389V711.38H782.585V706.988H789.389V700.004H794.141V706.988H800.945V711.38ZM825.203 711.38H818.399V718.364H813.647V711.38H806.843V706.988H813.647V700.004H818.399V706.988H825.203V711.38Z" fill="#47D2A0"/>
<defs>
<filter id="filter0_d_4_146" x="602.72" y="169.597" width="367.28" height="367.28" filterUnits="userSpaceOnUse" color-interpolation-filters="sRGB">
<feFlood flood-opacity="0" result="BackgroundImageFix"/>
<feColorMatrix in="SourceAlpha" type="matrix" values="0 0 0 0 0 0 0 0 0 0 0 0 0 0 0 0 0 0 127 0" result="hardAlpha"/>
<feMorphology radius="13" operator="dilate" in="SourceAlpha" result="effect1_dropShadow_4_146"/>
<feOffset dy="4"/>
<feGaussianBlur stdDeviation="47"/>
<feComposite in2="hardAlpha" operator="out"/>
<feColorMatrix type="matrix" values="0 0 0 0 0 0 0 0 0 0 0 0 0 0 0 0 0 0 0.25 0"/>
<feBlend mode="normal" in2="BackgroundImageFix" result="effect1_dropShadow_4_146"/>
<feBlend mode="normal" in="SourceGraphic" in2="effect1_dropShadow_4_146" result="shape"/>
</filter>
<filter id="filter1_d_4_146" x="1" y="530" width="367.28" height="367.28" filterUnits="userSpaceOnUse" color-interpolation-filters="sRGB">
<feFlood flood-opacity="0" result="BackgroundImageFix"/>
<feColorMatrix in="SourceAlpha" type="matrix" values="0 0 0 0 0 0 0 0 0 0 0 0 0 0 0 0 0 0 127 0" result="hardAlpha"/>
<feMorphology radius="13" operator="dilate" in="SourceAlpha" result="effect1_dropShadow_4_146"/>
<feOffset dy="4"/>
<feGaussianBlur stdDeviation="47"/>
<feComposite in2="hardAlpha" operator="out"/>
<feColorMatrix type="matrix" values="0 0 0 0 0 0 0 0 0 0 0 0 0 0 0 0 0 0 0.25 0"/>
<feBlend mode="normal" in2="BackgroundImageFix" result="effect1_dropShadow_4_146"/>
<feBlend mode="normal" in="SourceGraphic" in2="effect1_dropShadow_4_146" result="shape"/>
</filter>
<filter id="filter2_d_4_146" x="301" y="0" width="367.28" height="367.28" filterUnits="userSpaceOnUse" color-interpolation-filters="sRGB">
<feFlood flood-opacity="0" result="BackgroundImageFix"/>
<feColorMatrix in="SourceAlpha" type="matrix" values="0 0 0 0 0 0 0 0 0 0 0 0 0 0 0 0 0 0 127 0" result="hardAlpha"/>
<feMorphology radius="13" operator="dilate" in="SourceAlpha" result="effect1_dropShadow_4_146"/>
<feOffset dy="4"/>
<feGaussianBlur stdDeviation="47"/>
<feComposite in2="hardAlpha" operator="out"/>
<feColorMatrix type="matrix" values="0 0 0 0 0 0 0 0 0 0 0 0 0 0 0 0 0 0 0.25 0"/>
<feBlend mode="normal" in2="BackgroundImageFix" result="effect1_dropShadow_4_146"/>
<feBlend mode="normal" in="SourceGraphic" in2="effect1_dropShadow_4_146" result="shape"/>
</filter>
<filter id="filter3_d_4_146" x="0.476135" y="169.597" width="367.28" height="367.28" filterUnits="userSpaceOnUse" color-interpolation-filters="sRGB">
<feFlood flood-opacity="0" result="BackgroundImageFix"/>
<feColorMatrix in="SourceAlpha" type="matrix" values="0 0 0 0 0 0 0 0 0 0 0 0 0 0 0 0 0 0 127 0" result="hardAlpha"/>
<feMorphology radius="13" operator="dilate" in="SourceAlpha" result="effect1_dropShadow_4_146"/>
<feOffset dy="4"/>
<feGaussianBlur stdDeviation="47"/>
<feComposite in2="hardAlpha" operator="out"/>
<feColorMatrix type="matrix" values="0 0 0 0 0 0 0 0 0 0 0 0 0 0 0 0 0 0 0.25 0"/>
<feBlend mode="normal" in2="BackgroundImageFix" result="effect1_dropShadow_4_146"/>
<feBlend mode="normal" in="SourceGraphic" in2="effect1_dropShadow_4_146" result="shape"/>
</filter>
<filter id="filter4_d_4_146" x="603" y="529" width="367.28" height="367.28" filterUnits="userSpaceOnUse" color-interpolation-filters="sRGB">
<feFlood flood-opacity="0" result="BackgroundImageFix"/>
<feColorMatrix in="SourceAlpha" type="matrix" values="0 0 0 0 0 0 0 0 0 0 0 0 0 0 0 0 0 0 127 0" result="hardAlpha"/>
<feMorphology radius="13" operator="dilate" in="SourceAlpha" result="effect1_dropShadow_4_146"/>
<feOffset dy="4"/>
<feGaussianBlur stdDeviation="47"/>
<feComposite in2="hardAlpha" operator="out"/>
<feColorMatrix type="matrix" values="0 0 0 0 0 0 0 0 0 0 0 0 0 0 0 0 0 0 0.25 0"/>
<feBlend mode="normal" in2="BackgroundImageFix" result="effect1_dropShadow_4_146"/>
<feBlend mode="normal" in="SourceGraphic" in2="effect1_dropShadow_4_146" result="shape"/>
</filter>
</defs>
</svg>
